<?xml version="1.0" encoding="UTF-8"?>
<svg xmlns="http://www.w3.org/2000/svg" xmlns:xlink="http://www.w3.org/1999/xlink" width="512" height="512" viewBox="0 0 61 60" version="1.1"><!-- Generator: Sketch 51.3 (57544) - http://www.bohemiancoding.com/sketch --><title>038 - Life Insurance</title><desc>Created with Sketch.</desc><defs/><g id="Page-1" stroke="none" stroke-width="1" fill="none" fill-rule="evenodd"><g id="038---Life-Insurance" fill-rule="nonzero"><path d="M60,55.02 L60,59 L2,59 L2,55.02 C1.89092636,54.313575 1.97738645,53.5907686 2.25,52.93 C2.85,51.9 4.53,51.33 5.54,50.79 C6.97,50.03 8.4,49.26 9.81,48.47 C11.3685784,47.4983092 13.0840661,46.8046702 14.88,46.42 C17.9,45.87 20.92,43.13 20.92,43.13 L41.08,43.13 C41.08,43.13 44.1,45.87 47.12,46.42 C48.9159339,46.8046702 50.6314216,47.4983092 52.19,48.47 C53.6,49.26 55.03,50.03 56.46,50.79 C57.47,51.33 59.15,51.9 59.75,52.93 C60.0226136,53.5907686 60.1090736,54.313575 60,55.02 Z" id="Shape" fill="#CAD9FC"/><path d="M57,55.02 L57,59 L2,59 L2,55.02 C1.89092636,54.313575 1.97738645,53.5907686 2.25,52.93 C2.85,51.9 4.53,51.33 5.54,50.79 C6.97,50.03 8.4,49.26 9.81,48.47 C11.3685784,47.4983092 13.0840661,46.8046702 14.88,46.42 C17.9,45.87 20.92,43.13 20.92,43.13 L38.08,43.13 C38.08,43.13 41.1,45.87 44.12,46.42 C45.9159339,46.8046702 47.6314216,47.4983092 49.19,48.47 C50.6,49.26 52.03,50.03 53.46,50.79 C54.47,51.33 56.15,51.9 56.75,52.93 C57.0226136,53.5907686 57.1090736,54.313575 57,55.02 Z" id="Shape" fill="#E8EDFC"/><path d="M39.56,59 L22.44,59 C15.89,55.72 17.9,45.32 17.9,45.32 L17.87,45.27 C18.9587533,44.6653649 19.9810225,43.9481006 20.92,43.13 L41.08,43.13 C42.0189775,43.9481006 43.0412467,44.6653649 44.13,45.27 L44.1,45.32 C44.1,45.32 46.11,55.72 39.56,59 Z" id="Shape" fill="#E8EDFC"/><rect id="Rectangle-path" fill="#E8EDFC" x="20.924" y="39.302" width="20.152" height="7.66"/><path d="M17.85,29.97 C15.8685703,28.7938439 14.5072667,26.8031205 14.13,24.53 C14.13,24.53 13.6,19.6 14.67,19.06 C15.74,18.52 16.83,20.15 16.83,20.15 L23,26 L17.85,29.97 Z" id="Shape" fill="#CAD9FC"/><path d="M43.93,34.71 C43.4542052,36.4879105 42.4625006,38.0850768 41.08,39.3 C37.05,43.13 37.05,46.96 33.02,46.96 L28.98,46.96 C24.95,46.96 24.95,43.13 20.92,39.3 C16.89,35.47 17.9,32.19 17.9,28.36 C17.9,24.53 16.39,23.43 16.89,12.49 C17.39,1.55 29.99,1 29.99,1 L32.01,1 C34.8550451,1.21129008 37.6098981,2.09188365 40.05,3.57 L43.93,34.71 Z" id="Shape" fill="#CAD9FC"/><path d="M41,34.71 C40.6015552,36.4439534 39.7290979,38.0330719 38.48,39.3 C34.916,43.13 34.916,46.96 31.353,46.96 L27.78,46.96 C24.217,46.96 24.217,43.13 20.653,39.3 C17.089,35.47 17.983,32.19 17.983,28.36 C17.983,24.53 16.648,23.43 17.09,12.49 C17.532,1.55 28.673,1 28.673,1 L30.46,1 C33.0135958,1.22043868 35.4647629,2.10656885 37.569,3.57 L41,34.71 Z" id="Shape" fill="#E8EDFC"/><path d="M60,7.33 L60,21.46 C59.9949804,24.4268418 58.5525697,27.2073028 56.13,28.92 L46.29,35.93 C46.115307,36.0500632 45.884693,36.0500632 45.71,35.93 L44.5,35.07 L35.87,28.92 C33.4474303,27.2073028 32.0050196,24.4268418 32,21.46 L32,7.33 C32.0005992,7.1309412 32.118079,6.95080551 32.3,6.87 L44.5,1.6 L45.8,1.04 C45.9286443,0.989991901 46.0713557,0.989991901 46.2,1.04 L59.7,6.87 C59.881921,6.95080551 59.9994008,7.1309412 60,7.33 Z" id="Shape" fill="#E8EDFC"/><path d="M57,7.33 L57,21.46 C56.9949804,24.4268418 55.5525697,27.2073028 53.13,28.92 L44.5,35.07 L35.87,28.92 C33.4474303,27.2073028 32.0050196,24.4268418 32,21.46 L32,7.33 C32.0005992,7.1309412 32.118079,6.95080551 32.3,6.87 L44.5,1.6 L56.7,6.87 C56.881921,6.95080551 56.9994008,7.1309412 57,7.33 Z" id="Shape" fill="#FFFFFF"/><path d="M38.188,25.664 C36.8239601,24.6992838 36.0092071,23.1356877 36,21.465 L36,9.633 L46,5.313 L56,9.633 L56,21.465 C55.991115,23.1360413 55.1763259,24.7000788 53.812,25.665 L46,31.225 L38.188,25.664 Z" id="Shape" fill="#A4C2F7"/><path d="M46.93,34.71 C46.8450096,35.046267 46.7391376,35.3769084 46.613,35.7 L47.499,35.069 L46.924,34.659 L46.93,34.71 Z" id="Shape" fill="#FFFFFF"/><path d="M5,59 L5,55.02 C4.89092636,54.313575 4.97738645,53.5907686 5.25,52.93 C5.85,51.9 7.53,51.33 8.54,50.79 C9.97,50.03 11.4,49.26 12.81,48.47 C14.3685784,47.4983092 16.0840661,46.8046702 17.88,46.42 C18.9321363,46.1997298 19.9422422,45.8125 20.872,45.273 C21.6303963,44.8519399 22.3569991,44.376005 23.046,43.849 L23.058,43.839 C23.317,43.639 23.523,43.474 23.67,43.35 L23.729,43.3 L23.843,43.2 L23.878,43.17 L23.922,43.131 L23.922,39.609 C23.831,39.509 23.747,39.403 23.651,39.3 C22.792792,38.4066203 22.1024462,37.3660205 21.613,36.228 C20.622,34.128 20.758,32.113 20.854,29.965 L20.848,29.965 C18.8665703,28.7888439 17.5052667,26.7981205 17.128,24.525 C17.128,24.525 16.598,19.595 17.668,19.055 C18.738,18.515 19.828,20.145 19.828,20.145 L19.899,20.212 C19.7500765,17.6385882 19.746404,15.0588254 19.888,12.485 C19.9422716,10.4798297 20.5383547,8.52675047 21.613,6.833 C24.768,1.345 31.673,1 31.673,1 L28.673,1 C28.673,1 21.773,1.345 18.615,6.838 C17.5403547,8.53175047 16.9442716,10.4848297 16.89,12.49 C16.748404,15.0638254 16.7520765,17.6435882 16.901,20.217 L16.83,20.15 C16.83,20.15 15.75,18.51 14.67,19.06 C13.59,19.61 14.13,24.53 14.13,24.53 C14.5072667,26.8031205 15.8685703,28.7938439 17.85,29.97 L17.856,29.97 C17.756,32.118 17.624,34.135 18.615,36.233 C19.1049703,37.3692459 19.7952908,38.408114 20.653,39.3 C20.753,39.4 20.833,39.506 20.924,39.609 L20.924,43.13 L20.88,43.169 L20.845,43.199 L20.731,43.299 L20.672,43.349 C20.525,43.473 20.319,43.641 20.06,43.838 L20.048,43.848 C19.3576506,44.3744818 18.6297076,44.8497504 17.87,45.27 C16.9410461,45.8103482 15.9316218,46.1985883 14.88,46.42 C13.0840661,46.8046702 11.3685784,47.4983092 9.81,48.47 C8.4,49.26 6.97,50.03 5.54,50.79 C4.53,51.33 2.85,51.9 2.25,52.93 C1.97738645,53.5907686 1.89092636,54.313575 2,55.02 L2,59 L5,59 Z" id="Shape" fill="#FFFFFF"/><path d="M46,37 C45.6289221,37.0003112 45.2670352,36.8845773 44.965,36.669 L35.289,29.781 C32.6077945,27.8777289 31.0104682,24.797038 31,21.509 L31,7.047 C30.999409,6.64883898 31.2350788,6.28826415 31.6,6.129 L45.6,0.082 C45.8525505,-0.0279576698 46.1394495,-0.0279576698 46.392,0.082 L60.392,6.129 C60.7569212,6.28826415 60.992591,6.64883898 60.992,7.047 L60.992,21.509 C60.9815318,24.797038 59.3842055,27.8777289 56.703,29.781 L47.027,36.669 C46.7271893,36.8829945 46.3683453,36.9986492 46,37 Z M33,7.705 L33,21.505 C33.0097266,24.1463069 34.2942465,26.6203764 36.449,28.148 L46,34.951 L55.551,28.151 C57.705467,26.6235813 58.989951,24.1499534 59,21.509 L59,7.705 L46,2.089 L33,7.705 Z" id="Shape" fill="#428DFF"/><path d="M46,32.269 C45.792029,32.26882 45.5892884,32.2038032 45.42,32.083 L37.608,26.522 C35.980878,25.3695623 35.0097397,23.5028766 35,21.509 L35,9.677 C34.999409,9.27883898 35.2350788,8.91826415 35.6,8.759 L45.6,4.439 C45.8527492,4.33000068 46.1392508,4.33000068 46.392,4.439 L56.392,8.759 C56.7569212,8.91826415 56.992591,9.27883898 56.992,9.677 L56.992,21.509 C56.9824167,23.5031892 56.0112795,25.3702451 54.384,26.523 L46.572,32.083 C46.404939,32.2022308 46.2052365,32.2671691 46,32.269 Z M38.769,24.894 L46,30.042 L53.231,24.894 C54.3323369,24.117224 54.9910962,22.8566812 55,21.509 L55,10.334 L46,6.446 L37,10.334 L37,21.509 C37.0087381,22.8567225 37.6675346,24.1173365 38.769,24.894 Z" id="Shape" fill="#428DFF"/><path d="M44,24 C43.7836298,24 43.5730962,23.9298221 43.4,23.8 L39.4,20.8 C39.1141875,20.5856406 38.9644453,20.2350853 39.0071797,19.8803848 C39.0499141,19.5256842 39.2786328,19.2207259 39.6071797,19.0803848 C39.9357266,18.9400436 40.3141875,18.9856406 40.6,19.2 L43.824,21.618 L51.224,12.375 C51.5700579,11.9477006 52.1961792,11.8799554 52.6256245,12.2233466 C53.0550699,12.5667379 53.1267114,13.1924254 52.786,13.624 L44.786,23.624 C44.5952448,23.8628859 44.3056993,24.0013962 44,24 Z" id="Shape" fill="#428DFF"/><path d="M17.849,30.97 C17.6891747,30.9704972 17.5316337,30.9320558 17.39,30.858 C15.1179166,29.5351524 13.5583105,27.263632 13.14,24.668 C12.734,20.909 13.1,18.732 14.22,18.168 C15.695,17.415 17.081,18.714 17.665,19.601 C17.9224582,20.0583804 17.7824934,20.6369753 17.3444496,20.9261106 C16.9064057,21.2152458 16.3193667,21.1165171 16,20.7 C15.8003712,20.3926346 15.5284345,20.1388957 15.208,19.961 C14.9415205,21.434371 14.9148434,22.9411193 15.129,24.423 C15.4735819,26.3610921 16.6339015,28.0578684 18.315,29.082 C18.7246772,29.2941472 18.9360515,29.7590248 18.8266175,30.2072056 C18.7171835,30.6553864 18.3153475,30.9705342 17.854,30.97 L17.849,30.97 Z" id="Shape" fill="#428DFF"/><path d="M20.924,47.962 C20.3717153,47.962 19.924,47.5142847 19.924,46.962 L19.924,39.3 C19.924,38.7477153 20.3717153,38.3 20.924,38.3 C21.4762847,38.3 21.924,38.7477153 21.924,39.3 L21.924,46.96 C21.9245311,47.2255628 21.8194088,47.4804309 21.6318148,47.6684 C21.4442209,47.8563692 21.1895634,47.9620005 20.924,47.962 Z" id="Shape" fill="#428DFF"/><path d="M23,60 L2,60 C1.44771525,60 1,59.5522847 1,59 L1,56.228 C1,55.828 1,55.421 1,55.019 C1,54.88 1,54.74 0.99,54.601 C0.903327263,53.8520063 1.04262876,53.0942062 1.39,52.425 C2.14446277,51.4343242 3.17083143,50.6845261 4.344,50.267 C4.608,50.143 4.858,50.026 5.075,49.91 C6.496,49.15 7.916,48.39 9.317,47.596 C10.9769531,46.5770251 12.796774,45.8451075 14.7,45.431 C17.4,44.943 20.225,42.416 20.253,42.39 C20.6625191,42.0180362 21.2960362,42.0484809 21.668,42.458 C22.0399638,42.8675192 22.0095191,43.5010362 21.6,43.873 C21.468,43.993 18.328,46.808 15.062,47.399 C13.3782146,47.7755533 11.7688764,48.4298328 10.3,49.335 C8.884,50.135 7.448,50.906 6.014,51.673 C5.769,51.805 5.486,51.938 5.189,52.073 C4.39652408,52.3532359 3.68311181,52.8200408 3.109,53.434 C2.97190711,53.7792733 2.93011657,54.1550428 2.988,54.522 C2.995,54.69 3.001,54.859 3,55.022 C3,55.422 3,55.822 3,56.215 L3,58 L23,58 C23.5522847,58 24,58.4477153 24,59 C24,59.5522847 23.5522847,60 23,60 Z" id="Shape" fill="#428DFF"/><path d="M60,60 L39,60 C38.4477153,60 38,59.5522847 38,59 C38,58.4477153 38.4477153,58 39,58 L59,58 L59,56.223 C59,55.823 59,55.429 59,55.031 C59,54.863 59.005,54.694 59.012,54.531 C59.069819,54.163712 59.028033,53.7876378 58.891,53.442 C58.3165255,52.8287056 57.6032009,52.3623011 56.811,52.082 C56.511,51.943 56.231,51.81 55.986,51.682 C54.552,50.915 53.116,50.147 51.701,49.344 C50.2334652,48.4365386 48.6251732,47.7795687 46.942,47.4 C43.677,46.809 40.537,43.994 40.405,43.874 C39.9954809,43.5034169 39.963917,42.8710192 40.3345,42.4615 C40.7050831,42.0519809 41.3374809,42.020417 41.747,42.391 C41.775,42.417 44.601,44.944 47.299,45.432 C49.2045155,45.846324 51.0264364,46.5792846 52.688,47.6 C54.088,48.394 55.509,49.154 56.93,49.914 C57.147,50.03 57.397,50.147 57.661,50.271 C58.8341686,50.6885261 59.8605372,51.4383242 60.615,52.429 C60.959664,53.0972727 61.0971919,53.8531537 61.01,54.6 C61.01,54.739 60.999,54.879 61,55.019 C61,55.419 61,55.819 61,56.227 L61,59 C61,59.5522847 60.5522847,60 60,60 Z" id="Shape" fill="#428DFF"/><path d="M30.034,2 C26.065,2.343 21.777,3.955 19.586,7.228 C18.5546227,8.81410172 17.9675588,10.6478132 17.886,12.538 L15.886,12.444 C15.9854996,10.1837442 16.6926571,7.99214321 17.933,6.1 C19.2903323,4.17181312 21.1480437,2.65051588 23.306,1.7 C25.4043514,0.753559751 27.6510023,0.17836299 29.946,-1.77635684e-15 L30.034,2 Z" id="Shape" fill="#FFFFFF"/><path d="M25.115,2.042 C25.2907659,2.54922995 25.8311021,2.83188754 26.348,2.687 C27.5488778,2.32814168 28.7844753,2.09784991 30.034,2 L29.946,-8.8817842e-16 C28.5338911,0.103948376 27.1373144,0.361468406 25.781,0.768 C25.5201039,0.843243399 25.3013455,1.02194103 25.1755515,1.262574 C25.0497575,1.50320698 25.0278792,1.78482626 25.115,2.042 Z" id="Shape" fill="#428DFF"/><path d="M15.891,12.443 L17.891,12.537 C17.9725588,10.6468132 18.5596227,8.81310172 19.591,7.227 C19.7446246,6.96823619 19.9231374,6.72508359 20.124,6.501 C20.4504517,6.08456163 20.4094374,5.48877572 20.029,5.121 C19.8299592,4.93166632 19.5605286,4.83466934 19.2864797,4.85368731 C19.0124308,4.87270528 18.7589807,5.00598821 18.588,5.221 C18.3455325,5.49508287 18.1280034,5.79025314 17.938,6.103 C16.6983396,7.99398865 15.9912115,10.1841168 15.891,12.443 Z" id="Shape" fill="#428DFF"/><path d="M22.9,4.157 C23.1160855,4.03216639 23.2766038,3.82982041 23.349,3.591 L23.381,3.404 C23.3878592,3.33739251 23.3861789,3.27018154 23.376,3.204 C23.3752967,3.14027526 23.3655322,3.07697455 23.347,3.016 C23.3266825,2.95231057 23.3026411,2.88986968 23.275,2.829 C23.1533353,2.59223041 22.9413607,2.4145034 22.687,2.336 C22.5534829,2.30165859 22.4145255,2.29384436 22.278,2.313 C21.8526337,2.36888768 21.5056003,2.6809395 21.405,3.098 C21.3780139,3.22761021 21.3780139,3.36138979 21.405,3.491 C21.4297096,3.61911218 21.480791,3.74068591 21.555,3.848 C21.7108615,4.06080689 21.935586,4.21309655 22.191,4.279 C22.4341694,4.33362329 22.6890744,4.28976093 22.9,4.157 Z" id="Shape" fill="#428DFF"/><path d="M40.049,4.57 C39.857048,4.56969511 39.6692396,4.51415104 39.508,4.41 C37.2147467,3.03221981 34.6322815,2.20711824 31.965,2 L29.99,2 C29.4377153,2 28.99,1.55228475 28.99,1 C28.99,0.44771525 29.4377153,-3.42636147e-16 29.99,-4.4408921e-16 L32.01,-4.4408921e-16 C35.0482021,0.207860674 37.991753,1.14388379 40.592,2.729 C40.9654504,2.96924756 41.1357402,3.42698722 41.0101174,3.85290155 C40.8844947,4.27881588 40.4930533,4.57087385 40.049,4.57 Z" id="Shape" fill="#428DFF"/><path d="M33.02,47.96 L28.98,47.96 C25.947,47.96 24.76,46.134 23.385,44.021 C22.5037976,42.561903 21.444311,41.2182294 20.231,40.021 C16.554,36.527 16.701,33.321 16.844,30.221 C16.872,29.612 16.9,28.993 16.9,28.358 C16.8817142,27.2363148 16.7544493,26.1190623 16.52,25.022 C16.114,22.781 15.559,19.712 15.891,12.442 C15.9227225,11.8932543 16.3866611,11.4701601 16.936,11.489 C17.2009567,11.5011847 17.4502191,11.6181319 17.6289445,11.8141109 C17.8076699,12.0100899 17.9012157,12.2690447 17.889,12.534 C17.566,19.578 18.077,22.399 18.489,24.665 C18.7456546,25.8803993 18.8833046,27.1179097 18.9,28.36 C18.9,29.026 18.871,29.675 18.842,30.314 C18.703,33.329 18.594,35.714 21.608,38.575 C22.9342208,39.8789446 24.094334,41.3416815 25.062,42.93 C26.428,45.03 27.111,45.96 28.98,45.96 L33.02,45.96 C34.889,45.96 35.572,45.031 36.938,42.93 C37.905666,41.3416815 39.0657792,39.8789446 40.392,38.575 C41.6326248,37.4883768 42.5254866,36.0602153 42.959,34.469 C43.0430697,34.1200553 43.3077029,33.8429313 43.6524022,33.7428688 C43.9971015,33.6428064 44.3689888,33.7351555 44.6268356,33.9848456 C44.8846824,34.2345357 44.9889341,34.6032633 44.9,34.951 C44.3794811,36.91354 43.2905376,38.6784635 41.77,40.024 C40.5563609,41.2211914 39.4965387,42.5648645 38.615,44.024 C37.24,46.134 36.053,47.96 33.02,47.96 Z" id="Shape" fill="#428DFF"/><path d="M41.076,47.962 C40.5237153,47.962 40.076,47.5142847 40.076,46.962 L40.076,39.3 C40.076,38.7477153 40.5237153,38.3 41.076,38.3 C41.6282847,38.3 42.076,38.7477153 42.076,39.3 L42.076,46.96 C42.0765311,47.2255628 41.9714088,47.4804309 41.7838148,47.6684 C41.5962209,47.8563692 41.3415634,47.9620005 41.076,47.962 Z" id="Shape" fill="#428DFF"/><path d="M39.564,60 L22.436,60 C22.2801173,60.0001453 22.1263592,59.9638461 21.987,59.894 C14.843,56.312 16.831,45.585 16.92,45.13 C17.0357779,44.5994013 17.5538795,44.2581978 18.0870646,44.3614125 C18.6202496,44.4646271 18.9735938,44.9745261 18.883,45.51 C18.865,45.605 17.137,54.978 22.683,58 L39.319,58 C44.878,54.971 43.136,45.606 43.119,45.511 C43.0254661,44.9742764 43.3787857,44.4614446 43.9136176,44.3576387 C44.4484495,44.2538328 44.9679603,44.5972564 45.082,45.13 C45.171,45.585 47.159,56.312 40.015,59.894 C39.875037,59.9641502 39.7205583,60.0004579 39.564,60 Z" id="Shape" fill="#428DFF"/></g></g></svg>
