<?xml version="1.0" encoding="UTF-8"?>
<svg xmlns="http://www.w3.org/2000/svg" xmlns:xlink="http://www.w3.org/1999/xlink" width="512" height="512" viewBox="0 0 60 60" version="1.1"><!-- Generator: Sketch 51.3 (57544) - http://www.bohemiancoding.com/sketch --><title>027 - Secure</title><desc>Created with Sketch.</desc><defs/><g id="Page-1" stroke="none" stroke-width="1" fill="none" fill-rule="evenodd"><g id="027---Secure" fill-rule="nonzero"><path d="M27,8.34 C23.9060285,6.55369474 20.0941042,6.55367053 17.00011,8.33993649 C13.9061158,10.1262024 12.0000908,13.4273895 12,17 L12,26 L5.99999966,26 L6,17 C5.99867913,10.6175738 9.79065053,4.84485102 15.6486771,2.31129799 C21.5067037,-0.222255047 28.3101277,0.968037807 32.96,5.34 L27,8.34 Z" id="Shape" fill="#A4C2F7"/><path d="M27,23 L5,23 C2.790861,23 1,24.790861 1,27 L1,55 C1,57.209139 2.790861,59 5,59 L39,59 C41.209139,59 43,57.209139 43,55 L43,41 L27,23 Z" id="Shape" fill="#CAD9FC"/><path d="M40,23 L4.714,23 C2.58491963,23.0813355 0.923455731,24.870742 1,27 L1,55 C0.923455731,57.129258 2.58491963,58.9186645 4.714,59 L36.286,59 C38.4150804,58.9186645 40.0765443,57.129258 40,55 L40,23 Z" id="Shape" fill="#E8EDFC"/><path d="M24.43,41.37 L25.893,49.411 C25.9194076,49.5569862 25.8796226,49.7071611 25.784401,49.8209248 C25.6891794,49.9346885 25.5483551,50.0002922 25.4,50 L18.6,50 C18.4518197,49.9999955 18.3112743,49.934265 18.2162787,49.8205406 C18.1212831,49.7068161 18.0816239,49.556814 18.108,49.411 L19.57,41.37 C17.5791274,40.2628951 16.5882499,37.9500562 17.1601152,35.7450108 C17.7319805,33.5399654 19.7220064,32.000206 22,32.000206 C24.2779936,32.000206 26.2680195,33.5399654 26.8398848,35.7450108 C27.4117501,37.9500562 26.4208726,40.2628951 24.43,41.37 Z" id="Shape" fill="#35495E"/><path d="M19.8,49 C19.651785,48.999753 19.5113181,48.9337619 19.4165091,48.8198365 C19.3217,48.7059112 19.2823211,48.5557943 19.309,48.41 L20.685,40.848 L20.064,40.499 C18.1624155,39.4392739 17.4525176,37.056679 18.464,35.129 C18.9617639,34.1604621 19.8410684,33.4435354 20.89,33.151 C22.8528647,32.5677878 24.9392081,33.5611176 25.7239056,35.4524727 C26.508603,37.3438278 25.7382268,39.5223717 23.939,40.5 L23.318,40.849 L24.694,48.411 C24.7204397,48.5571588 24.6805291,48.7075069 24.5850812,48.8213101 C24.4896334,48.9351133 24.3485298,49.0005898 24.2,49 L19.8,49 Z" id="Shape" fill="#7FACFA"/><path d="M59,8.24 L59,24.44 C58.9907111,27.8275577 57.3440947,31.0015786 54.58,32.96 L43.52,40.83 C43.2114844,41.060006 42.7885156,41.060006 42.48,40.83 L41.5,40.13 L31.42,32.96 C28.6524044,31.0046294 27.0047786,27.828663 27,24.44 L27,8.24 C27.0005992,8.0409412 27.118079,7.86080551 27.3,7.78 L41.5,1.65 L42.8,1.09 C42.9265851,1.0300079 43.0734149,1.0300079 43.2,1.09 L58.7,7.78 C58.881921,7.86080551 58.9994008,8.0409412 59,8.24 Z" id="Shape" fill="#E8EDFC"/><path d="M56,8.24 L56,24.44 C55.9907111,27.8275577 54.3440947,31.0015786 51.58,32.96 L41.5,40.13 L31.42,32.96 C28.6524044,31.0046294 27.0047786,27.828663 27,24.44 L27,8.24 C27.0005992,8.0409412 27.118079,7.86080551 27.3,7.78 L41.5,1.65 L55.7,7.78 C55.881921,7.86080551 55.9994008,8.0409412 56,8.24 Z" id="Shape" fill="#FFFFFF"/><path d="M33.741,29.7 C32.0321666,28.4911625 31.0115128,26.5321477 31,24.439 L31,10.539 L43,5.357 L55,10.541 L55,24.441 C54.9881102,26.5337457 53.9670259,28.4921273 52.258,29.7 L43,36.294 L33.741,29.7 Z" id="Shape" fill="#A4C2F7"/><path d="M4.714,59 L7.714,59 C5.58491963,58.9186645 3.92345573,57.129258 4,55 L4,27 C3.92345573,24.870742 5.58491963,23.0813355 7.714,23 L9,23 L9,17 C8.99902756,8.7337815 15.2983543,1.82923384 23.53,1.074 C23.026,1.026 22.516,1 22,1 C13.163444,1 6,8.163444 6,17 L6,23 L4.714,23 C2.58491963,23.0813355 0.923455731,24.870742 1,27 L1,55 C0.923455731,57.129258 2.58491963,58.9186645 4.714,59 Z" id="Shape" fill="#FFFFFF"/><path d="M8,30 L1,30 C0.44771525,30 6.76353751e-17,29.5522847 0,29 C-6.76353751e-17,28.4477153 0.44771525,28 1,28 L8,28 C8.55228475,28 9,28.4477153 9,29 C9,29.5522847 8.55228475,30 8,30 Z" id="Shape" fill="#CAD9FC"/><path d="M8,34 L1,34 C0.44771525,34 6.76353751e-17,33.5522847 0,33 C-6.76353751e-17,32.4477153 0.44771525,32 1,32 L8,32 C8.55228475,32 9,32.4477153 9,33 C9,33.5522847 8.55228475,34 8,34 Z" id="Shape" fill="#CAD9FC"/><path d="M8,38 L1,38 C0.44771525,38 6.76353751e-17,37.5522847 0,37 C-6.76353751e-17,36.4477153 0.44771525,36 1,36 L8,36 C8.55228475,36 9,36.4477153 9,37 C9,37.5522847 8.55228475,38 8,38 Z" id="Shape" fill="#CAD9FC"/><path d="M8,42 L1,42 C0.44771525,42 6.76353751e-17,41.5522847 0,41 C-6.76353751e-17,40.4477153 0.44771525,40 1,40 L8,40 C8.55228475,40 9,40.4477153 9,41 C9,41.5522847 8.55228475,42 8,42 Z" id="Shape" fill="#CAD9FC"/><path d="M8,46 L1,46 C0.44771525,46 6.76353751e-17,45.5522847 0,45 C-6.76353751e-17,44.4477153 0.44771525,44 1,44 L8,44 C8.55228475,44 9,44.4477153 9,45 C9,45.5522847 8.55228475,46 8,46 Z" id="Shape" fill="#CAD9FC"/><path d="M8,50 L1,50 C0.44771525,50 6.76353751e-17,49.5522847 0,49 C-6.76353751e-17,48.4477153 0.44771525,48 1,48 L8,48 C8.55228475,48 9,48.4477153 9,49 C9,49.5522847 8.55228475,50 8,50 Z" id="Shape" fill="#CAD9FC"/><path d="M8,54 L1,54 C0.44771525,54 6.76353751e-17,53.5522847 0,53 C-6.76353751e-17,52.4477153 0.44771525,52 1,52 L8,52 C8.55228475,52 9,52.4477153 9,53 C9,53.5522847 8.55228475,54 8,54 Z" id="Shape" fill="#CAD9FC"/><path d="M43,42 L36,42 C35.4477153,42 35,41.5522847 35,41 C35,40.4477153 35.4477153,40 36,40 L43,40 C43.5522847,40 44,40.4477153 44,41 C44,41.5522847 43.5522847,42 43,42 Z" id="Shape" fill="#CAD9FC"/><path d="M43,46 L36,46 C35.4477153,46 35,45.5522847 35,45 C35,44.4477153 35.4477153,44 36,44 L43,44 C43.5522847,44 44,44.4477153 44,45 C44,45.5522847 43.5522847,46 43,46 Z" id="Shape" fill="#CAD9FC"/><path d="M43,50 L36,50 C35.4477153,50 35,49.5522847 35,49 C35,48.4477153 35.4477153,48 36,48 L43,48 C43.5522847,48 44,48.4477153 44,49 C44,49.5522847 43.5522847,50 43,50 Z" id="Shape" fill="#CAD9FC"/><path d="M43,54 L36,54 C35.4477153,54 35,53.5522847 35,53 C35,52.4477153 35.4477153,52 36,52 L43,52 C43.5522847,52 44,52.4477153 44,53 C44,53.5522847 43.5522847,54 43,54 Z" id="Shape" fill="#CAD9FC"/><path d="M43,42 C42.6055819,41.9993594 42.2211393,41.8759883 41.9,41.647 L30.841,33.776 C27.8145207,31.6277749 26.0115768,28.1503763 26,24.439 L26,7.912 C25.999409,7.51383898 26.2350788,7.15326415 26.6,6.994 L42.6,0.082 C42.8527492,-0.0269993194 43.1392508,-0.0269993194 43.392,0.082 L59.392,6.994 C59.7569212,7.15326415 59.992591,7.51383898 59.992,7.912 L59.992,24.439 C59.9791974,28.1503138 58.1760846,31.62732 55.15,33.776 L44.1,41.648 C43.7789225,41.8769936 43.3943714,42.00005 43,42 Z M28,8.569 L28,24.439 C28.010937,27.5033816 29.5006092,30.37398 32,32.147 L43,39.977 L54,32.147 C56.4993908,30.37398 57.989063,27.5033816 58,24.439 L58,8.569 L43,2.089 L28,8.569 Z" id="Shape" fill="#428DFF"/><path d="M43,37.294 C42.792029,37.29382 42.5892884,37.2288032 42.42,37.108 L33.161,30.518 C31.1883258,29.1202846 30.0112542,26.856628 30,24.439 L30,10.539 C29.999409,10.140839 30.2350788,9.78026415 30.6,9.621 L42.6,4.437 C42.8527492,4.32800068 43.1392508,4.32800068 43.392,4.437 L55.392,9.621 C55.7569212,9.78026415 55.992591,10.140839 55.992,10.539 L55.992,24.439 C55.981409,26.8567917 54.8041891,29.1207335 52.831,30.518 L43.572,37.108 C43.404939,37.2272308 43.2052365,37.2921691 43,37.294 Z M34.321,28.894 L43,35.066 L51.679,28.889 C53.1258669,27.8674947 53.9903181,26.2101023 54,24.439 L54,11.2 L43,6.447 L32,11.2 L32,24.439 C32.0106764,26.2098555 32.8749046,27.8668203 34.321,28.889 L34.321,28.894 Z" id="Shape" fill="#428DFF"/><path d="M40.713,27.143 C40.4966298,27.143 40.2860962,27.0728221 40.113,26.943 L35.542,23.515 C35.1001722,23.1836292 35.0106292,22.5568278 35.342,22.115 C35.6733708,21.6731722 36.3001722,21.5836292 36.742,21.915 L40.542,24.762 L49.075,14.09 C49.2981124,13.8107969 49.6532297,13.6718317 50.0065829,13.7254511 C50.359936,13.7790706 50.6578421,14.0171286 50.7880829,14.3499511 C50.9183236,14.6827736 50.8611124,15.0597969 50.638,15.339 L41.5,26.767 C41.3090269,27.006162 41.0190495,27.1447027 40.713,27.143 Z" id="Shape" fill="#428DFF"/><path d="M39,60 L5,60 C2.23994685,59.9966939 0.00330611633,57.7600532 0,55 L0,27 C0.00330611633,24.2399468 2.23994685,22.0033061 5,22 L27,22 C27.5522847,22 28,22.4477153 28,23 C28,23.5522847 27.5522847,24 27,24 L5,24 C3.34314575,24 2,25.3431458 2,27 L2,55 C2,56.6568542 3.34314575,58 5,58 L39,58 C40.6568542,58 42,56.6568542 42,55 L42,41 C42,40.4477153 42.4477153,40 43,40 C43.5522847,40 44,40.4477153 44,41 L44,55 C43.9966939,57.7600532 41.7600532,59.9966939 39,60 Z" id="Shape" fill="#428DFF"/><path d="M5,17 C5.01760969,7.61846311 12.6184631,0.0176096887 22,1.77635684e-15 L22,2 C13.7228028,2.0170534 7.0170534,8.72280279 7,17 L5,17 Z" id="Shape" fill="#FFFFFF"/><path d="M6.778,12.081 C6.5188213,11.9972084 6.23624872,12.027462 6.00068351,12.1642233 C5.76511829,12.3009847 5.59873972,12.5313772 5.543,12.798 C5.19510588,14.1720061 5.01281102,15.5826931 5,17 L7,17 C7.01278735,15.7489112 7.17459449,14.5038019 7.482,13.291 C7.58726704,12.7676417 7.28500436,12.2481277 6.778,12.081 Z" id="Shape" fill="#428DFF"/><path d="M22,2 L22,0 C17.6541258,0.00908645464 13.4759268,1.67821973 10.32,4.666 C10.0540457,4.8996199 9.80476984,5.15156892 9.574,5.42 C9.38289716,5.61182105 9.28076992,5.87485078 9.29235823,6.14537124 C9.30394654,6.41589171 9.42819322,6.66922424 9.635,6.844 C10.047768,7.18667489 10.6530638,7.16073364 11.035,6.784 C11.2371694,6.54567393 11.4571344,6.32303461 11.693,6.118 C14.4775992,3.48083929 18.1648272,2.00766525 22,2 Z" id="Shape" fill="#428DFF"/><path d="M7.081,8.847 C6.95735501,9.09511924 6.93130492,9.38059973 7.008,9.647 L7.089,9.825 C7.12144096,9.88473005 7.16255417,9.939323 7.211,9.987 C7.24938301,10.0376369 7.29524011,10.0821453 7.347,10.119 C7.40188925,10.1563702 7.45936768,10.1897879 7.519,10.219 C7.75937141,10.326669 8.03025646,10.3451062 8.283,10.271 C8.40158981,10.2297982 8.51122014,10.166328 8.606,10.084 C8.89312668,9.83784375 9.01921902,9.45224029 8.933,9.084 C8.89587431,8.95911075 8.83659814,8.8419133 8.758,8.738 C8.68180642,8.631423 8.58653308,8.53987922 8.477,8.468 C8.25034876,8.3287801 7.97757056,8.28559622 7.719,8.348 C7.45242133,8.43062914 7.22541517,8.60817785 7.081,8.847 Z" id="Shape" fill="#428DFF"/><path d="M32.96,6.34 C32.7058464,6.33986941 32.461278,6.2429717 32.276,6.069 C29.4946331,3.45227243 25.8188028,1.99674951 22,2 C21.4477153,2 21,1.55228475 21,1 C21,0.44771525 21.4477153,-7.02456282e-16 22,-8.039105e-16 C26.3271077,-0.00396647486 30.4923077,1.64508642 33.644,4.61 C33.943711,4.89059801 34.0414612,5.32587676 33.8905052,5.70768066 C33.7395492,6.08948457 33.3705629,6.34022705 32.96,6.34 Z" id="Shape" fill="#428DFF"/><path d="M12,24 L6,24 C5.44771525,24 5,23.5522847 5,23 L5,17 C5,16.4477153 5.44771525,16 6,16 C6.55228475,16 7,16.4477153 7,17 L7,22 L11,22 L11,17 C11.0000998,13.0701284 13.0967274,9.43882269 16.500121,7.47393014 C19.9035146,5.50903758 24.0966314,5.50906421 27.5,7.474 C27.8119508,7.65136158 28.0049532,7.98227321 28.0057421,8.3411183 C28.006531,8.69996339 27.8149854,9.03172041 27.5038174,9.21045186 C27.1926495,9.38918331 26.8095704,9.38748438 26.5,9.206 C23.7154257,7.59832526 20.2846937,7.59830348 17.500099,9.20594284 C14.7155043,10.8135822 13.0000817,13.7846505 13,17 L13,23 C13,23.5522847 12.5522847,24 12,24 Z" id="Shape" fill="#428DFF"/><path d="M26,51 L18,51 C17.7036048,50.9997484 17.4225926,50.8680267 17.2327879,50.640377 C17.0429833,50.4127273 16.9639451,50.1126082 17.017,49.821 L18.467,41.847 C16.3672157,40.3172553 15.4904597,37.609926 16.2948637,35.1396735 C17.0992676,32.6694211 19.4020753,30.9974731 22,30.9974731 C24.5979247,30.9974731 26.9007324,32.6694211 27.7051363,35.1396735 C28.5095403,37.609926 27.6327843,40.3172553 25.533,41.847 L26.983,49.821 C27.0360549,50.1126082 26.9570167,50.4127273 26.7672121,50.640377 C26.5774074,50.8680267 26.2963952,50.9997484 26,51 Z M19.2,49 L24.8,49 L23.444,41.549 C23.3678121,41.1297066 23.5657209,40.708197 23.937,40.499 C25.5318938,39.6150781 26.3271223,37.7643944 25.8706247,35.999001 C25.4141271,34.2336075 23.8214594,33.000389 21.998,33.000389 C20.1745406,33.000389 18.5818729,34.2336075 18.1253753,35.999001 C17.6688777,37.7643944 18.4641062,39.6150781 20.059,40.499 C20.4302791,40.708197 20.6281879,41.1297066 20.552,41.549 L19.2,49 Z" id="Shape" fill="#428DFF"/></g></g></svg>
