<?xml version="1.0" encoding="utf-8"?>
<!-- Generator: Adobe Illustrator 19.2.0, SVG Export Plug-In . SVG Version: 6.00 Build 0)  -->
<svg version="1.1"
	 id="Layer_1" inkscape:version="0.91 r13725" sodipodi:docname="google_analytics-horizontal.svg" xmlns:cc="http://creativecommons.org/ns#" xmlns:dc="http://purl.org/dc/elements/1.1/" xmlns:inkscape="http://www.inkscape.org/namespaces/inkscape" xmlns:rdf="http://www.w3.org/1999/02/22-rdf-syntax-ns#" xmlns:sodipodi="http://sodipodi.sourceforge.net/DTD/sodipodi-0.dtd" xmlns:svg="http://www.w3.org/2000/svg"
	 xmlns="http://www.w3.org/2000/svg" xmlns:xlink="http://www.w3.org/1999/xlink" x="0px" y="0px" viewBox="0 0 310 60"
	 style="enable-background:new 0 0 310 60;" xml:space="preserve">
<style type="text/css">
	.st0{fill:#FFFFFF;}
	.st1{fill:#FFC517;}
	.st2{fill:#F57E02;}
	.st3{fill:url(#path4390_1_);}
</style>
<sodipodi:namedview  bordercolor="#666666" borderopacity="1" fit-margin-bottom="0" fit-margin-left="0" fit-margin-right="0" fit-margin-top="0" gridtolerance="10" guidetolerance="10" id="namedview4392" inkscape:current-layer="Layer_1" inkscape:cx="150" inkscape:cy="30" inkscape:pageopacity="0" inkscape:pageshadow="2" inkscape:window-height="789" inkscape:window-maximized="0" inkscape:window-width="1713" inkscape:window-x="65" inkscape:window-y="24" inkscape:zoom="4.6533333" objecttolerance="10" pagecolor="#ffffff" showgrid="false">
	</sodipodi:namedview>
<g>
	<g id="g4792" transform="matrix(0.94570319,0,0,0.94570319,61.462557,-127.56522)">
		<path id="path4349" inkscape:connector-curvature="0" class="st0" d="M130.8,158.8L130.8,158.8l4.4,11.4h-8.4
			C126.7,170.2,130.8,158.8,130.8,158.8z M129.1,155l-9.5,25h3.5l2.4-6.8h10.6l2.4,6.8h3.5l-9.5-25H129.1L129.1,155z"/>
		<path id="path4351" inkscape:connector-curvature="0" class="st0" d="M180.6,180h3.3v-25h-3.3V180z"/>
		<path id="path4353" inkscape:connector-curvature="0" class="st0" d="M147.1,165.3L147.1,165.3c1.1-1.6,3.3-3,5.4-3
			c4.4,0,6.5,3,6.5,7.3v10.6h-3.3v-10.1c0-3.5-1.9-4.9-4.4-4.9c-2.7,0-4.6,2.7-4.6,5.2v9.5h-3.3v-17.4h3.3L147.1,165.3L147.1,165.3z
			"/>
		<path id="path4355" inkscape:connector-curvature="0" class="st0" d="M161.8,174.9c0-3.8,3.5-6,7.6-6c2.4,0,4.1,0.5,4.6,1.1v-0.5
			c0-2.7-2.2-4.1-4.4-4.1c-1.9,0-3.5,0.8-4.1,2.4l-3-1.4c0.5-1.6,2.7-4.1,7.1-4.1c4.1,0,7.6,2.4,7.6,7.3V180h-3v-2.4H174
			c-0.8,1.4-2.7,3-5.7,3C164.8,180.6,161.8,178.4,161.8,174.9 M174,172.7c0,0-1.4-1.1-4.1-1.1c-3.3,0-4.6,1.9-4.6,3.3
			c0,1.9,1.9,2.7,3.5,2.7C171.3,177.6,174,175.4,174,172.7"/>
		<path id="path4357" inkscape:connector-curvature="0" class="st0" d="M188.4,187.6L188.4,187.6l3.8-9l-6.8-15.8h3.3l5.2,12l5.2-12
			h3.3l-10.6,24.8H188.4L188.4,187.6L188.4,187.6z"/>
		<path id="path4359" inkscape:connector-curvature="0" class="st0" d="M236.3,168.6c-0.8-2.2-2.7-3.5-4.6-3.5c-2.7,0-5.2,2.4-5.2,6
			s2.4,6,5.2,6c1.9,0,3.8-1.4,4.6-3.3l2.7,1.6c-1.4,3-4.1,4.9-7.3,4.9c-4.6,0-8.4-4.1-8.4-9.2c0-5.4,3.8-9.2,8.4-9.2
			c3.3,0,6,1.9,7.3,4.9L236.3,168.6L236.3,168.6z"/>
		<path id="path4361" inkscape:connector-curvature="0" class="st0" d="M248,180.6c4.4,0,6.5-2.4,6.5-5.4c0-6.5-9.5-4.1-9.5-7.9
			c0-1.4,1.1-2.2,3-2.2s3.8,0.8,4.6,2.2l1.9-1.9c-1.1-1.4-4.1-3.3-6.8-3.3c-4.1,0-6.3,2.4-6.3,5.4c0,6.3,9.8,4.1,9.8,7.3
			c0,1.6-1.1,2.7-3.3,2.7s-3.3-1.4-4.4-2.7l-2.4,1.9C242.9,178.4,245.3,180.6,248,180.6L248,180.6z"/>
		<path id="path4363" inkscape:connector-curvature="0" class="st0" d="M217,180h3.3v-17.4H217V180z"/>
		<path id="path4365" inkscape:connector-curvature="0" class="st0" d="M218.4,154.2c1.4,0,2.2,1.1,2.2,2.2c0,1.4-1.1,2.2-2.2,2.2
			s-2.2-1.1-2.2-2.2C216.2,155.3,217.3,154.2,218.4,154.2z"/>
		<path id="path4367" inkscape:connector-curvature="0" class="st0" d="M213.7,177.3l0.5,2.4c-1.1,0-2.2,0-3.3,0
			c-3,0-4.4-2.2-4.4-5.4v-8.4h-3.3v-3.3h3.3v-5.2h3.3v5.2h3.8v3.3h-3.8v9C209.9,177.3,211.8,177.3,213.7,177.3L213.7,177.3z"/>
		<path id="path4369" inkscape:connector-curvature="0" class="st0" d="M13.2,165.1v4.1h9.5c-0.3,2.2-1.1,3.8-2.2,4.9
			c-1.4,1.4-3.5,3-7.3,3c-5.7,0-10.3-4.6-10.3-10.6c0-5.7,4.6-10.6,10.3-10.6c3.3,0,5.4,1.4,7.1,2.7l2.7-2.7
			c-2.4-2.2-5.4-4.1-9.8-4.1c-7.9,0-14.7,6.5-14.7,14.4s6.8,14.4,14.7,14.4c4.4,0,7.6-1.4,10.1-4.1c2.7-2.7,3.5-6.3,3.5-9.2
			c0-0.8,0-1.9-0.3-2.4H13.2V165.1z"/>
		<path id="path4371" inkscape:connector-curvature="0" class="st0" d="M37.5,161.8c-5.2,0-9.2,3.8-9.2,9.2s4.1,9.2,9.2,9.2
			s9.2-4.1,9.2-9.2C46.7,165.6,42.6,161.8,37.5,161.8z M37.5,176.8c-2.7,0-5.2-2.4-5.2-5.7c0-3.3,2.4-5.7,5.2-5.7
			c2.7,0,5.2,2.2,5.2,5.7S40.2,176.8,37.5,176.8z"/>
		<path id="path4373" inkscape:connector-curvature="0" class="st0" d="M82.1,163.7L82.1,163.7c-1.1-1.1-2.7-2.2-5.2-2.2
			c-4.6,0-8.7,4.1-8.7,9.2s4.1,9.2,8.7,9.2c2.2,0,4.1-1.1,4.9-2.2h0.3v1.4c0,3.5-1.9,5.4-4.9,5.4c-2.4,0-4.1-1.9-4.6-3.3l-3.5,1.4
			c1.1,2.4,3.8,5.4,8.2,5.4c4.9,0,9-2.7,9-9.8v-16.9h-3.8v2.2L82.1,163.7z M77.5,176.8c-2.7,0-4.9-2.4-4.9-5.7
			c0-3.3,2.2-5.7,4.9-5.7c2.7,0,4.9,2.4,4.9,5.7C82.3,174.3,80.2,176.8,77.5,176.8z"/>
		<path id="path4375" inkscape:connector-curvature="0" class="st0" d="M57.6,161.8c-5.2,0-9.2,3.8-9.2,9.2s4.1,9.2,9.2,9.2
			s9.2-4.1,9.2-9.2C67.1,165.6,62.8,161.8,57.6,161.8z M57.6,176.8c-2.7,0-5.2-2.4-5.2-5.7c0-3.3,2.4-5.7,5.2-5.7s5.2,2.2,5.2,5.7
			S60.3,176.8,57.6,176.8z"/>
		<path id="path4377" inkscape:connector-curvature="0" class="st0" d="M89.1,152h4.1v28.3h-4.1C89.1,180.3,89.1,152,89.1,152z"/>
		<path id="path4379" inkscape:connector-curvature="0" class="st0" d="M104.4,176.8c-2.2,0-3.5-1.1-4.6-2.7l12.5-5.2l-0.5-1.1
			c-0.8-2.2-3.3-6-7.9-6c-4.9,0-8.7,3.8-8.7,9.2c0,5.2,4.1,9.2,9.2,9.2c4.4,0,6.8-2.7,7.9-4.1L109,174
			C107.9,175.7,106.6,176.8,104.4,176.8L104.4,176.8z M104.1,165.3c1.6,0,3,0.8,3.5,2.2l-8.4,3.5C99.2,167,101.9,165.3,104.1,165.3
			L104.1,165.3z"/>
	</g>
	<g id="g4787" transform="matrix(0.31824946,0,0,0.31824946,4.7046413,-10.327962)">
		<path id="path4381" inkscape:connector-curvature="0" class="st1" d="M66.6,188.3h-7.1H20.1c-5.7,0-10.3-4.6-10.3-10.3v-22.3
			c0-5.7,4.6-10.3,10.3-10.3h29.4v-32.6c0-5.7,4.6-10.3,10.3-10.3h32.6V188H66.6V188.3z"/>
		<path id="path4383" inkscape:connector-curvature="0" class="st2" d="M125.1,188.3H92.4V73c0-5.7,4.6-10.3,10.3-10.3h22.3
			c5.7,0,10.3,4.6,10.3,10.3v105C135.2,183.7,130.5,188.3,125.1,188.3z"/>
		
			<linearGradient id="path4390_1_" gradientUnits="userSpaceOnUse" x1="284.6208" y1="-198.4668" x2="300.3834" y2="-198.4668" gradientTransform="matrix(0.8658 0 0 -0.8658 -154.1126 -26.5164)">
			<stop  offset="0" style="stop-color:#E96F0B"/>
			<stop  offset="1" style="stop-color:#F37901"/>
		</linearGradient>
		<path id="path4390" inkscape:connector-curvature="0" class="st3" d="M135.2,145.3V178c0,5.7-4.6,10.3-10.3,10.3H92.2v-86
			C92.2,102.3,135.2,145.3,135.2,145.3z"/>
	</g>
</g>
</svg>
