<?xml version="1.0" encoding="utf-8"?>
<!-- Generator: Adobe Illustrator 19.2.0, SVG Export Plug-In . SVG Version: 6.00 Build 0)  -->
<svg version="1.1" id="Layer_1" xmlns="http://www.w3.org/2000/svg" xmlns:xlink="http://www.w3.org/1999/xlink" x="0px" y="0px"
	 viewBox="0 0 100 100" style="enable-background:new 0 0 100 100;" xml:space="preserve">
<style type="text/css">
	.st0{fill:#FC7A03;}
</style>
<path class="st0" d="M73.8,24.2C73.8,24.2,73.8,24.2,73.8,24.2c-0.1-0.1-0.1-0.1-0.1-0.1l-0.9-0.8l0,0c-9.7-8.5-19.4-11.8-29.2-9.6
	c-7.2,1.7-13.8,5.7-19.8,12.2L0,51.7l26.2,24.1c10,9.2,20.1,12.8,30.2,10.5c7.2-1.6,13.8-5.7,19.8-12.2L100,48.3L73.8,24.2z
	 M67.5,66.2c-7.3,7.9-16.8,6.5-28.5-4.3c-11.7-10.8-13.9-20.1-6.6-28s16.8-6.5,28.5,4.3C72.6,49,74.8,58.3,67.5,66.2z"/>
</svg>
